<svg width="1696" height="3523" viewBox="0 0 1696 3523" fill="none" xmlns="http://www.w3.org/2000/svg">
<rect x="1451" y="80" width="150" height="328" fill="#E8F1F5"/>
<rect x="261" width="150" height="328" fill="#E8F1F5"/>
<rect x="612" y="402" width="150" height="328" fill="#E8F1F5"/>
<rect x="1031" y="906" width="150" height="328" fill="#E8F1F5"/>
<rect x="1467" y="1121" width="88" height="328" fill="#E8F1F5"/>
<rect x="1567" y="3031" width="88" height="328" fill="#E8F1F5"/>
<rect x="989" y="118" width="88" height="328" fill="#E8F1F5"/>
<rect x="473" y="1310" width="88" height="328" fill="#E8F1F5"/>
<rect y="1459" width="88" height="328" fill="#E8F1F5"/>
<rect x="227" y="1766" width="88" height="328" fill="#E8F1F5"/>
<rect x="786" y="2021" width="88" height="328" fill="#E8F1F5"/>
<rect x="1291" y="1580" width="88" height="328" fill="#E8F1F5"/>
<rect x="44" y="2265" width="88" height="328" fill="#E8F1F5"/>
<rect x="1479" y="2442" width="43" height="328" fill="#E8F1F5"/>
<rect x="1653" y="622" width="43" height="328" fill="#E8F1F5"/>
<rect x="1099" y="2721" width="43" height="328" fill="#E8F1F5"/>
<rect x="903" y="1414" width="43" height="328" fill="#E8F1F5"/>
<rect x="138" y="697" width="43" height="328" fill="#E8F1F5"/>
<rect x="107" y="3077" width="43" height="328" fill="#E8F1F5"/>
<rect x="903" y="3195" width="43" height="328" fill="#E8F1F5"/>
<rect x="598" y="2892" width="43" height="328" fill="#E8F1F5"/>
<rect x="367" y="2437" width="150" height="328" fill="#E8F1F5"/>
</svg>
