<svg width="440" height="3523" viewBox="0 0 440 3523" fill="none" xmlns="http://www.w3.org/2000/svg">
<rect x="376.438" y="80" width="38.9151" height="328" fill="#E8F1F5"/>
<rect x="67.7124" width="38.9151" height="328" fill="#E8F1F5"/>
<rect x="158.773" y="402" width="38.9151" height="328" fill="#E8F1F5"/>
<rect x="267.477" y="906" width="38.9151" height="328" fill="#E8F1F5"/>
<rect x="380.59" y="1121" width="22.8302" height="328" fill="#E8F1F5"/>
<rect x="406.533" y="3031" width="22.8302" height="328" fill="#E8F1F5"/>
<rect x="256.58" y="118" width="22.8302" height="328" fill="#E8F1F5"/>
<rect x="122.712" y="1310" width="22.8302" height="328" fill="#E8F1F5"/>
<rect y="1459" width="22.8302" height="328" fill="#E8F1F5"/>
<rect x="58.8916" y="1766" width="22.8302" height="328" fill="#E8F1F5"/>
<rect x="203.915" y="2021" width="22.8302" height="328" fill="#E8F1F5"/>
<rect x="334.929" y="1580" width="22.8302" height="328" fill="#E8F1F5"/>
<rect x="11.415" y="2265" width="22.8302" height="328" fill="#E8F1F5"/>
<rect x="383.703" y="2442" width="11.1557" height="328" fill="#E8F1F5"/>
<rect x="428.844" y="622" width="11.1557" height="328" fill="#E8F1F5"/>
<rect x="285.118" y="2721" width="11.1557" height="328" fill="#E8F1F5"/>
<rect x="234.269" y="1414" width="11.1557" height="328" fill="#E8F1F5"/>
<rect x="35.8018" y="697" width="11.1557" height="328" fill="#E8F1F5"/>
<rect x="27.7593" y="3077" width="11.1557" height="328" fill="#E8F1F5"/>
<rect x="234.269" y="3195" width="11.1557" height="328" fill="#E8F1F5"/>
<rect x="155.142" y="2892" width="11.1557" height="328" fill="#E8F1F5"/>
<rect x="95.2124" y="2437" width="38.9151" height="328" fill="#E8F1F5"/>
</svg>
