<svg width="209" height="24" viewBox="0 0 209 24" fill="none" xmlns="http://www.w3.org/2000/svg">
<path d="M119.701 1H114.677V23H119.701V1Z" fill="#333333" stroke="#333333"/>
<path d="M135.402 22.3714H140.427V4.77143H148.591V1H127.866V4.77143H135.402V22.3714Z" fill="#333333" stroke="#333333"/>
<path d="M175.597 1V4.77143H163.036C161.027 4.77143 160.524 6.44762 160.524 7.28571V8.54286C160.524 9.54857 160.507 9.8 160.925 9.8H175.597V13.5714H160.735C160.526 13.5714 160.524 13.8229 160.524 14.8286V16.0857C160.524 18.0971 162.199 18.6 163.036 18.6H175.597V22.3714H161.78C157.761 22.3714 156.756 18.181 156.756 16.0857V6.02857C156.756 2.00571 160.105 1 161.78 1H175.597Z" fill="#333333"/>
<path d="M190.042 1H185.018V22.3714H190.042V1Z" fill="#333333"/>
<path d="M175.597 1V4.77143H163.036C161.027 4.77143 160.524 6.44762 160.524 7.28571V8.54286C160.524 9.54857 160.507 9.8 160.925 9.8H175.597V13.5714H160.735C160.526 13.5714 160.524 13.8229 160.524 14.8286V16.0857C160.524 18.0971 162.199 18.6 163.036 18.6H175.597V22.3714H161.78C157.761 22.3714 156.756 18.181 156.756 16.0857V6.02857C156.756 2.00571 160.105 1 161.78 1H175.597Z" stroke="#333333"/>
<path d="M190.042 1H185.018V22.3714H190.042V1Z" stroke="#333333"/>
<path d="M206.372 1H200.72L191.299 11.0571L200.092 22.3714H207L196.323 11.0571L206.372 1Z" fill="#333333" stroke="#333333"/>
<path d="M105.256 1V4.77143H93.9513C89.9317 4.77143 89.5549 8.12381 89.5549 9.8V13.5714C89.5549 17.5943 92.2765 18.6 93.9513 18.6H105.256V22.3714H93.3232C87.7964 22.3714 85.7866 17.3429 85.7866 14.8286V8.54286C85.7866 2.50857 90.3923 1 92.6952 1H105.256Z" fill="#333333" stroke="#333333"/>
<path d="M36.1708 1H31.7744V17.3429C31.7744 21.8686 35.124 23 36.7988 23H48.1037V19.2286H38.6829C37.1756 19.2286 36.1708 17.9714 36.1708 16.7143V1Z" fill="#333333" stroke="#333333"/>
<path d="M63.8049 2.25714L55.0122 22.3714H59.4085L65.689 7.28571C66.3171 6.02857 66.3171 6.02857 66.9451 7.28571L73.2256 22.3714H78.25C75.1098 16.0857 69.4573 3.51429 68.8293 2.25714C68.3799 1.3576 67.5732 1 66.9451 1H65.689C64.6842 1 64.0142 1.8381 63.8049 2.25714Z" fill="#333333" stroke="#333333"/>
<path d="M7.28049 1H21.7256V4.77143H9.16463C5.64756 4.77143 4.76829 7.28571 4.76829 8.54286V14.8286C4.76829 18.3486 7.69919 19.2286 9.16463 19.2286H17.9573V14.2H11.6768V9.8H21.7256V22.3714H8.53659C2.50732 22.3714 1 18.181 1 16.0857V8.54286C1 3.01143 5.18699 1.20952 7.28049 1Z" fill="#333333" stroke="#333333"/>
</svg>
