<svg width="71" height="74" viewBox="0 0 71 74" fill="none" xmlns="http://www.w3.org/2000/svg">
<mask id="mask0_397_2765" style="mask-type:alpha" maskUnits="userSpaceOnUse" x="7" y="2" width="59" height="70">
<path d="M29.7472 3.42249C32.312 1.76334 35.5977 1.70952 38.2155 3.2838L61.4416 17.2518C63.8327 18.6898 65.3019 21.2697 65.3185 24.0599L65.4772 50.7391C65.4943 53.597 63.9853 56.247 61.5188 57.6908L40.3482 70.0834C37.8007 71.5746 34.6392 71.5418 32.1232 69.9982L10.9166 56.9875C8.54534 55.5327 7.10013 52.9505 7.10013 50.1686L7.1001 22.4258C7.1001 19.7118 8.47608 17.1828 10.7548 15.7087L29.7472 3.42249Z" fill="#D9D9D9"/>
</mask>
<g mask="url(#mask0_397_2765)">
<path d="M6.49658 18.1373L28.5616 4.35303V13.7844L6.49658 26.6114V18.1373Z" fill="#333333"/>
<path d="M64.736 19.5883L33.459 0.725586V5.37764L61.0991 22.4903L64.736 19.5883Z" fill="#333333"/>
<path d="M6.54613 31.0821L16.002 25.7754V54.6534H6.49658L6.54613 31.0821Z" fill="#333333"/>
<path d="M13.2661 58.9443L6.49687 54.5781L16.0024 54.5781L13.2661 58.9443Z" fill="#333333"/>
<path d="M23.7258 54.6538L48.0063 65.1973L35.6603 72.5492L16.7056 61.0962L23.7258 54.6538Z" fill="#333333"/>
<path d="M40.8364 66.1661L49.8939 53.2026L52.9018 61.9085L43.8528 67.7124L40.8364 66.1661Z" fill="#333333"/>
<path d="M22.2744 37.2417L52.9019 53.2025V61.9084L22.2744 49.6658V37.2417Z" fill="#333333"/>
<path d="M44.0548 62.392L25.0586 50.7842L46.8691 58.7646L44.0548 62.392Z" fill="#333333"/>
<path d="M58.4707 31.0048L64.9674 26.1177V55.3791L58.4707 59.0066V31.0048Z" fill="#333333"/>
<path d="M33.459 10.1567L57.4622 24.6665L50.1885 33.3565L33.459 21.7646V10.1567Z" fill="#333333"/>
<path d="M49.6533 28.5361H53.8298V44.4969H49.6533V28.5361Z" fill="#333333"/>
</g>
</svg>
