<svg width="206" height="22" viewBox="0 0 206 22" fill="none" xmlns="http://www.w3.org/2000/svg">
<path d="M118.701 0H113.677V22H118.701V0Z" fill="#FAFAFA"/>
<path d="M134.402 21.3714H139.427V3.77143H147.591V0H126.866V3.77143H134.402V21.3714Z" fill="#FAFAFA"/>
<path d="M174.597 0V3.77143H162.036C160.027 3.77143 159.524 5.44762 159.524 6.28571V7.54286C159.524 8.54857 159.507 8.8 159.925 8.8H174.597V12.5714H159.735C159.526 12.5714 159.524 12.8229 159.524 13.8286V15.0857C159.524 17.0971 161.199 17.6 162.036 17.6H174.597V21.3714H160.78C156.761 21.3714 155.756 17.181 155.756 15.0857V5.02857C155.756 1.00571 159.105 0 160.78 0H174.597Z" fill="#FAFAFA"/>
<path d="M189.042 0H184.018V21.3714H189.042V0Z" fill="#FAFAFA"/>
<path d="M205.372 0H199.72L190.299 10.0571L199.092 21.3714H206L195.323 10.0571L205.372 0Z" fill="#FAFAFA"/>
<path d="M104.256 0V3.77143H92.9513C88.9317 3.77143 88.5549 7.12381 88.5549 8.8V12.5714C88.5549 16.5943 91.2765 17.6 92.9513 17.6H104.256V21.3714H92.3232C86.7964 21.3714 84.7866 16.3429 84.7866 13.8286V7.54286C84.7866 1.50857 89.3923 0 91.6952 0H104.256Z" fill="#FAFAFA"/>
<path d="M35.1708 0H30.7744V16.3429C30.7744 20.8686 34.124 22 35.7988 22H47.1037V18.2286H37.6829C36.1756 18.2286 35.1708 16.9714 35.1708 15.7143V0Z" fill="#FAFAFA"/>
<path d="M62.8049 1.25714L54.0122 21.3714H58.4085L64.689 6.28571C65.3171 5.02857 65.3171 5.02857 65.9451 6.28571L72.2256 21.3714H77.25C74.1098 15.0857 68.4573 2.51429 67.8293 1.25714C67.3799 0.357605 66.5732 0 65.9451 0H64.689C63.6842 0 63.0142 0.838095 62.8049 1.25714Z" fill="#FAFAFA"/>
<path d="M6.28049 0H20.7256V3.77143H8.16463C4.64756 3.77143 3.76829 6.28571 3.76829 7.54286V13.8286C3.76829 17.3486 6.69919 18.2286 8.16463 18.2286H16.9573V13.2H10.6768V8.8H20.7256V21.3714H7.53659C1.50732 21.3714 0 17.181 0 15.0857V7.54286C0 2.01143 4.18699 0.209524 6.28049 0Z" fill="#FAFAFA"/>
</svg>
