<svg width="75" height="78" viewBox="0 0 75 78" fill="none" xmlns="http://www.w3.org/2000/svg">
<mask id="mask0_320_2128" style="mask-type:alpha" maskUnits="userSpaceOnUse" x="7" y="2" width="63" height="74">
<path d="M31.6655 3.45108C34.2272 1.7975 37.5062 1.74385 40.1206 3.31274L65.1134 18.3107C67.5082 19.7478 68.9802 22.3298 68.9969 25.1226L69.1675 53.7264C69.1845 56.5871 67.6727 59.2392 65.2025 60.682L42.3814 74.0119C39.8373 75.4979 36.6823 75.4652 34.1695 73.9269L11.323 59.9404C8.94808 58.4865 7.50003 55.9022 7.50003 53.1175L7.5 23.4079C7.5 20.6911 8.8788 18.16 11.1614 16.6866L31.6655 3.45108Z" fill="#D9D9D9"/>
</mask>
<g mask="url(#mask0_320_2128)">
<path d="M6.86279 19.1177L30.1709 4.58826V14.5294L6.86279 28.0498V19.1177Z" fill="#FAFAFA"/>
<path d="M35.3442 0.799072L51.7158 9.94116L68.6275 19.8823L63.7732 23.9725L49.9429 15.1826L35.3442 6.39266V0.799072Z" fill="#FAFAFA"/>
<path d="M68.3833 20.6471L35.3442 0.764771V5.66828L64.5415 23.7059L68.3833 20.6471Z" fill="#FAFAFA"/>
<path d="M6.91513 32.7624L16.9037 27.1688V57.6078H6.86279L6.91513 32.7624Z" fill="#FAFAFA"/>
<path d="M34.8037 3.05883L37.7449 1.52942V8.55757L34.8037 9.98384V3.05883Z" fill="#FAFAFA"/>
<path d="M14.0133 62.1306L6.86271 57.5283L16.9038 57.5283L14.0133 62.1306Z" fill="#FAFAFA"/>
<path d="M25.0628 57.6079L50.7112 68.7213L37.6696 76.4707L17.647 64.3985L25.0628 57.6079Z" fill="#FAFAFA"/>
<path d="M43.1372 69.7427L52.705 56.0785L55.8823 65.255L46.3235 71.3726L43.1372 69.7427Z" fill="#FAFAFA"/>
<path d="M23.5293 39.2549L55.8822 56.0784V65.2549L23.5293 52.3505V39.2549Z" fill="#FAFAFA"/>
<path d="M46.5371 65.7647L26.4707 53.5294L49.5099 61.9412L46.5371 65.7647Z" fill="#FAFAFA"/>
<path d="M61.7646 32.6807L68.6274 27.5294V58.3726L61.7646 62.1961V32.6807Z" fill="#FAFAFA"/>
<path d="M35.3442 10.7058L60.6998 25.9999L53.0163 35.1596L35.3442 22.9411V10.7058Z" fill="#FAFAFA"/>
<path d="M52.4512 30.0784H56.8629V46.9019H52.4512V30.0784Z" fill="#FAFAFA"/>
</g>
</svg>
